Coordinates
version=1
nRows=65
nColumns=12
inDegrees=yes

Units are S.I. units (second, meters, Newtons, ...)
Angles are in degrees

endheader
time	SC_y	SC_z	SC_x	AC_y	AC_z	AC_x	GH_y	GH_z	GH_yy	EL_x	PS_y
       0.0              -12.82         -1.197           52.4           63.7         -2.239         -17.57         -15.46          50.95         -157.9          14.71          29.32
   0.01113              -12.83         -1.196           52.4           63.7         -2.239         -17.57         -15.47          50.94         -157.9          14.72          29.33
   0.02226              -12.83         -1.195           52.4           63.7         -2.239         -17.56         -15.47          50.93         -157.9          14.72          29.33
   0.03339              -12.84         -1.194           52.4          63.69          -2.24         -17.56         -15.47          50.93         -157.9          14.73          29.34
   0.04452              -12.85         -1.193           52.4          63.69          -2.24         -17.55         -15.48          50.92         -157.9          14.73          29.35
   0.05564              -12.86         -1.191           52.4          63.68          -2.24         -17.55         -15.48          50.91         -157.9          14.74          29.36
   0.06677              -12.86          -1.19          52.39          63.68         -2.241         -17.54         -15.48           50.9         -157.9          14.75          29.36
    0.0779              -12.87         -1.189          52.39          63.68         -2.241         -17.53         -15.49          50.89         -157.9          14.76          29.37
   0.08903              -12.88         -1.187          52.39          63.67         -2.241         -17.53         -15.49          50.88         -157.8          14.77          29.38
    0.1002               -12.9         -1.185          52.39          63.67         -2.242         -17.52          -15.5          50.87         -157.8          14.78          29.39
    0.1113              -12.91         -1.184          52.39          63.66         -2.242         -17.51          -15.5          50.86         -157.8          14.79           29.4
    0.1224              -12.92         -1.182          52.39          63.66         -2.243          -17.5         -15.51          50.85         -157.8           14.8          29.41
    0.1335              -12.93          -1.18          52.38          63.65         -2.243         -17.49         -15.51          50.83         -157.8          14.81          29.43
    0.1447              -12.95         -1.178          52.38          63.64         -2.244         -17.48         -15.52          50.82         -157.8          14.82          29.44
    0.1558              -12.96         -1.175          52.38          63.63         -2.244         -17.47         -15.52           50.8         -157.8          14.84          29.46
    0.1669              -12.98         -1.173          52.38          63.63         -2.245         -17.46         -15.53          50.79         -157.7          14.85          29.47
    0.1781               -13.0          -1.17          52.37          63.62         -2.246         -17.44         -15.54          50.77         -157.7          14.87          29.49
    0.1892              -13.02         -1.167          52.37          63.61         -2.246         -17.43         -15.55          50.75         -157.7          14.89          29.51
    0.2003              -13.04         -1.163          52.37           63.6         -2.247         -17.41         -15.56          50.73         -157.7          14.91          29.53
    0.2114              -13.07          -1.16          52.36          63.59         -2.248          -17.4         -15.57           50.7         -157.7          14.93          29.55
    0.2226              -13.09         -1.156          52.36          63.57         -2.249         -17.38         -15.58          50.68         -157.6          14.95          29.58
    0.2337              -13.12         -1.151          52.35          63.56          -2.25         -17.36         -15.59          50.65         -157.6          14.98          29.61
    0.2448              -13.16         -1.146          52.35          63.55         -2.252         -17.33         -15.61          50.61         -157.6           15.0          29.64
     0.256              -13.19         -1.141          52.34          63.53         -2.253         -17.31         -15.62          50.58         -157.5          15.04          29.67
    0.2671              -13.23         -1.135          52.33          63.51         -2.254         -17.28         -15.64          50.54         -157.5          15.07          29.71
    0.2782              -13.28         -1.128          52.33          63.49         -2.256         -17.25         -15.66           50.5         -157.4          15.11          29.75
    0.2894              -13.33         -1.121          52.32          63.47         -2.258         -17.21         -15.68          50.45         -157.4          15.15           29.8
    0.3005              -13.38         -1.112          52.31          63.44          -2.26         -17.17          -15.7          50.39         -157.3           15.2          29.85
    0.3116              -13.45         -1.103           52.3          63.41         -2.263         -17.12         -15.73          50.33         -157.3          15.26          29.91
    0.3227              -13.52         -1.092          52.29          63.38         -2.265         -17.07         -15.76          50.26         -157.2          15.32          29.98
    0.3339               -13.6         -1.079          52.27          63.34         -2.268         -17.01         -15.79          50.18         -157.1           15.4          30.05
     0.345               -13.7         -1.065          52.26          63.29         -2.272         -16.94         -15.83          50.08         -157.0          15.48          30.14
    0.3561               -13.8         -1.049          52.24          63.24         -2.276         -16.87         -15.88          49.97         -156.9          15.57          30.24
    0.3673              -13.93          -1.03          52.22          63.19         -2.281         -16.77         -15.93          49.85         -156.8          15.69          30.36
    0.3784              -14.08         -1.007           52.2          63.12         -2.286         -16.67         -15.99           49.7         -156.6          15.82           30.5
    0.3895              -14.25        -0.9811          52.17          63.03         -2.293         -16.54         -16.07          49.53         -156.4          15.97          30.67
    0.4006              -14.46        -0.9498          52.13          62.94         -2.301         -16.39         -16.16          49.33         -156.2          16.15          30.86
    0.4118              -14.71        -0.9124          52.09          62.82          -2.31         -16.21         -16.26          49.08         -155.9          16.37           31.1
    0.4229              -15.01         -0.867          52.05          62.68         -2.322          -16.0         -16.39          48.78         -155.6          16.64          31.38
     0.434              -15.38        -0.8116          51.99          62.51         -2.336         -15.73         -16.54          48.42         -155.2          16.96          31.73
    0.4452              -15.84        -0.7433          51.91           62.3         -2.353          -15.4         -16.74          47.97         -154.8          17.36          32.15
    0.4563               -16.4        -0.6581          51.82          62.04         -2.374          -15.0         -16.97          47.41         -154.2          17.86          32.68
    0.4674              -17.12        -0.5507           51.7           61.7         -2.401         -14.48         -17.28          46.71         -153.4          18.49          33.35
    0.4785              -18.03        -0.4142          51.56          61.28         -2.435         -13.83         -17.66          45.81         -152.5          19.28          34.21
    0.4897              -19.19        -0.2395          51.37          60.74         -2.479         -12.99         -18.15          44.66         -151.3           20.3           35.3
    0.5008              -20.68       -0.01526          51.13          60.05         -2.536         -11.92         -18.78          43.19         -149.7          21.61           36.7
    0.5119              -22.59         0.2711          50.82          59.16         -2.608         -10.55         -19.58          41.31         -147.7          23.29          38.48
    0.5231              -24.98         0.6312          50.43          58.05         -2.698         -8.825         -20.59          38.95         -145.2          25.39          40.73
    0.5342               -27.9           1.07          49.95          56.69         -2.808         -6.725         -21.82          36.07         -142.2          27.96          43.47
    0.5453              -31.29          1.579           49.4          55.12         -2.936          -4.29         -23.25          32.73         -138.6          30.93          46.65
    0.5564              -34.96          2.129          48.81          53.41         -3.074         -1.654         -24.79          29.12         -134.8          34.15          50.08
    0.5676              -38.62           2.68          48.22          51.71         -3.213         0.9819         -26.33           25.5         -131.0          37.36          53.52
    0.5787              -42.01          3.189          47.67          50.13          -3.34          3.416         -27.76          22.16         -127.5          40.34           56.7
    0.5898              -44.93          3.628          47.19          48.78          -3.45          5.517         -28.99          19.28         -124.4           42.9          59.44
     0.601              -47.32          3.988           46.8          47.66         -3.541           7.24          -30.0          16.92         -121.9          45.01          61.68
    0.6121              -49.23          4.274          46.49          46.78         -3.613          8.611          -30.8          15.04         -119.9          46.68          63.47
    0.6232              -50.72          4.498          46.25          46.08         -3.669          9.684         -31.43          13.57         -118.4          47.99          64.87
    0.6343              -51.88          4.673          46.06          45.54         -3.713          10.52         -31.92          12.42         -117.1          49.01          65.96
    0.6455              -52.79           4.81          45.92          45.12         -3.747          11.17          -32.3          11.53         -116.2          49.81          66.81
    0.6566              -53.51          4.917           45.8          44.79         -3.774          11.69         -32.61          10.82         -115.5          50.43          67.48
    0.6677              -54.07          5.002          45.71          44.52         -3.796           12.1         -32.84          10.26         -114.9          50.93          68.02
    0.6789              -54.53          5.071          45.63          44.31         -3.813          12.42         -33.04          9.816         -114.4          51.33          68.44
      0.69               -54.9          5.126          45.57          44.14         -3.827          12.69         -33.19          9.453         -114.0          51.66          68.79
    0.7011               -55.2          5.171          45.53           44.0         -3.838           12.9         -33.32          9.155         -113.7          51.92          69.07
    0.7123              -55.45          5.209          45.49          43.89         -3.848          13.08         -33.42          8.909         -113.4          52.14           69.3
